<svg width="412" height="460" viewBox="0 0 412 460" fill="none" xmlns="http://www.w3.org/2000/svg">
<g clip-path="url(#clip0_115_1007)">
<rect width="800" height="537.841" transform="translate(-193 -77.9868)" fill="white"/>
<rect x="-193" y="-77.9868" width="800" height="600" fill="white"/>
<mask id="mask0_115_1007" style="mask-type:alpha" maskUnits="userSpaceOnUse" x="-193" y="-78" width="800" height="601">
<rect x="-193" y="-77.9868" width="800" height="600" fill="#FBF4E2"/>
</mask>
<g mask="url(#mask0_115_1007)">
<path fill-rule="evenodd" clip-rule="evenodd" d="M32.0821 254.577C32.0821 275.492 15.155 292.446 -5.72611 292.446H-74.4684C-95.3495 292.446 -112.277 275.492 -112.277 254.577C-112.277 233.663 -95.3495 216.709 -74.4684 216.709H-5.72611C15.155 216.709 32.0821 233.663 32.0821 254.577ZM-5.72614 271.79C3.7651 271.79 11.4594 264.084 11.4594 254.578C11.4594 245.071 3.7651 237.365 -5.72614 237.365H-74.4684C-83.9596 237.365 -91.654 245.071 -91.654 254.578C-91.654 264.084 -83.9596 271.79 -74.4684 271.79H-5.72614Z" fill="#A680FF"/>
<path fill-rule="evenodd" clip-rule="evenodd" d="M-151.165 467.79C-151.165 473.486 -146.547 478.104 -140.851 478.104H-108.876C-98.0391 478.104 -88.2666 473.546 -81.3711 466.242C-74.4756 473.546 -64.7031 478.104 -53.8661 478.104H-22.2354C-1.34805 478.104 15.584 461.172 15.584 440.285C15.584 434.588 10.9659 429.97 5.26965 429.97C-0.426636 429.97 -5.04472 434.588 -5.04472 440.285C-5.04472 449.779 -12.7413 457.475 -22.2354 457.475H-53.8661C-63.3601 457.475 -71.0567 449.779 -71.0567 440.285V370.835C-71.0567 350.328 -87.6814 333.703 -108.188 333.703V354.332C-99.074 354.332 -91.6855 361.72 -91.6855 370.835V440.285C-91.6855 449.779 -99.3821 457.475 -108.876 457.475H-140.851C-146.547 457.475 -151.165 462.093 -151.165 467.79Z" fill="#A680FF"/>
<path d="M-17.265 384.659C-7.7614 384.659 -0.0570908 376.952 -0.0570908 367.446C-0.0570908 357.94 -7.7614 350.233 -17.265 350.233C-26.7685 350.233 -34.4729 357.94 -34.4729 367.446C-34.4729 373.15 -39.0956 377.774 -44.7976 377.774C-50.4996 377.774 -55.1223 373.15 -55.1223 367.446C-55.1223 346.532 -38.1732 329.578 -17.265 329.578C3.6433 329.578 20.5924 346.532 20.5924 367.446C20.5924 388.36 3.6433 405.314 -17.265 405.314C-22.967 405.314 -27.5897 400.69 -27.5897 394.987C-27.5897 389.283 -22.967 384.659 -17.265 384.659Z" fill="#80AE51"/>
<path d="M-41.5395 244.41C-28.8471 244.41 -18.6418 234.205 -18.6418 221.719C-18.6418 209.232 -28.8471 199.027 -41.5395 199.027C-48.5513 199.027 -54.8079 202.137 -59.0178 207.059C-62.7239 211.392 -69.2486 211.907 -73.5908 208.209C-77.9337 204.511 -78.4498 198.001 -74.7437 193.668C-66.7609 184.334 -54.8369 178.399 -41.5395 178.399C-17.5213 178.399 2.03198 197.748 2.03198 221.719C2.03198 245.69 -17.5213 265.039 -41.5395 265.039C-47.2482 265.039 -51.8764 260.421 -51.8764 254.725C-51.8764 249.029 -47.2482 244.41 -41.5395 244.41Z" fill="#80AE51"/>
<path fill-rule="evenodd" clip-rule="evenodd" d="M50.0265 440.404C50.0265 430.93 42.3222 423.249 32.8186 423.249C23.3151 423.249 15.6108 430.93 15.6108 440.404C15.6108 446.089 10.988 450.697 5.28603 450.697C-0.41597 450.697 -5.0387 446.089 -5.0387 440.404C-5.0387 419.56 11.9104 402.662 32.8186 402.662C53.7269 402.662 70.676 419.56 70.676 440.404C70.676 446.089 66.0533 450.697 60.3513 450.697C54.6493 450.697 50.0265 446.089 50.0265 440.404Z" fill="#463C74"/>
<path d="M32.0821 256.788C32.0821 282.992 53.3179 304.234 79.5142 304.234C85.2089 304.234 89.8256 308.852 89.8256 314.548C89.8256 320.244 85.2089 324.862 79.5142 324.862C41.9287 324.862 11.4594 294.384 11.4594 256.788C11.4594 251.091 16.0761 246.473 21.7708 246.473C27.4654 246.473 32.0821 251.091 32.0821 256.788Z" fill="#80AE51"/>
<path fill-rule="evenodd" clip-rule="evenodd" d="M242.118 -51.7179C204.079 -51.7179 173.241 -20.8713 173.241 17.1799C173.241 22.8874 168.615 27.5146 162.909 27.5146C157.203 27.5146 152.577 22.8874 152.577 17.1799C152.577 -32.2866 192.666 -72.3872 242.118 -72.3872C247.824 -72.3872 252.45 -67.7602 252.45 -62.0525C252.45 -56.3448 247.824 -51.7179 242.118 -51.7179Z" fill="#FFC735"/>
<path fill-rule="evenodd" clip-rule="evenodd" d="M340.517 11.8852C340.517 -23.0895 312.172 -51.4421 277.208 -51.4421C271.508 -51.4421 266.886 -56.0648 266.886 -61.7672C266.886 -67.4696 271.508 -72.0923 277.208 -72.0923C323.574 -72.0923 361.161 -34.4943 361.161 11.8852C361.161 17.5874 356.54 22.2103 350.839 22.2103C345.138 22.2103 340.517 17.5874 340.517 11.8852Z" fill="#A680FF"/>
<path fill-rule="evenodd" clip-rule="evenodd" d="M18.5301 207.868C18.5301 180.525 -3.629 158.359 -30.9644 158.359C-36.659 158.359 -41.2757 153.741 -41.2757 148.045C-41.2757 142.349 -36.659 137.731 -30.9644 137.731C7.76022 137.731 39.1527 169.132 39.1527 207.868C39.1527 213.565 34.536 218.183 28.8414 218.183C23.1468 218.183 18.5301 213.565 18.5301 207.868Z" fill="#FFC735"/>
<path fill-rule="evenodd" clip-rule="evenodd" d="M5.27264 450.697C-0.421966 450.697 -5.0387 446.079 -5.0387 440.383C-5.0387 434.687 -0.421966 430.069 5.27264 430.069C10.9673 430.069 15.584 434.687 15.584 440.383C15.584 446.079 10.9673 450.697 5.27264 450.697Z" fill="#EB6B25"/>
<path fill-rule="evenodd" clip-rule="evenodd" d="M32.9659 454.234C27.2713 454.234 22.6546 449.616 22.6546 443.919C22.6546 438.223 27.2713 433.605 32.9659 433.605C38.6605 433.605 43.2773 438.223 43.2773 443.919C43.2773 449.616 38.6605 454.234 32.9659 454.234Z" fill="#EB6B25"/>
<path fill-rule="evenodd" clip-rule="evenodd" d="M21.7708 267.102C16.0761 267.102 11.4594 262.484 11.4594 256.788C11.4594 251.091 16.0761 246.473 21.7708 246.473C27.4654 246.473 32.0821 251.091 32.0821 256.788C32.0821 262.484 27.4654 267.102 21.7708 267.102Z" fill="#EB6B25"/>
<path fill-rule="evenodd" clip-rule="evenodd" d="M96.2802 253.399C96.2802 243.892 88.5759 236.186 79.0723 236.186C69.5681 236.186 61.8644 243.892 61.8644 253.399C61.8644 262.905 69.5681 270.612 79.0723 270.612C88.5759 270.612 96.2802 262.905 96.2802 253.399ZM79.0723 215.53C99.9799 215.53 116.93 232.484 116.93 253.399C116.93 274.313 99.9799 291.267 79.0723 291.267C58.164 291.267 41.215 274.313 41.215 253.399C41.215 232.484 58.164 215.53 79.0723 215.53Z" fill="#FFC735"/>
<path fill-rule="evenodd" clip-rule="evenodd" d="M125.179 46.9645C125.179 52.6608 129.801 57.2788 135.505 57.2788C145.01 57.2788 152.716 64.9754 152.716 74.4694V143.232C152.716 152.726 145.01 160.422 135.505 160.422C129.801 160.422 125.179 165.04 125.179 170.737C125.179 176.433 129.801 181.051 135.505 181.051C146.355 181.051 156.139 176.493 163.042 169.189C169.945 176.493 179.729 181.051 190.579 181.051H222.247C243.158 181.051 260.11 164.119 260.11 143.232C260.11 137.535 255.486 132.917 249.784 132.917C244.081 132.917 239.457 137.535 239.457 143.232C239.457 152.726 231.752 160.422 222.247 160.422H190.579C181.074 160.422 173.368 152.726 173.368 143.232V74.4694C173.368 53.5822 156.416 36.6501 135.505 36.6501C129.801 36.6501 125.179 41.2682 125.179 46.9645Z" fill="#A680FF"/>
<path d="M145.801 170.803C145.801 165.104 141.179 160.483 135.477 160.483C125.974 160.483 118.27 152.783 118.27 143.284V74.488C118.27 64.9893 125.974 57.289 135.477 57.289C141.179 57.289 145.801 52.6686 145.801 46.9696C145.801 41.2705 141.179 36.6501 135.477 36.6501C114.57 36.6501 97.621 53.5905 97.621 74.488V143.284C97.621 144.131 97.6485 144.971 97.7036 145.803C80.5204 151.062 68.0245 167.041 68.0245 185.938V225.84C68.0245 231.539 72.647 236.159 78.3488 236.159C84.0507 236.159 88.6732 231.539 88.6732 225.84V185.938C88.6732 176.002 95.4722 167.652 104.673 165.284C111.541 174.873 122.779 181.122 135.477 181.122C141.179 181.122 145.801 176.502 145.801 170.803Z" fill="#80AE51"/>
<path fill-rule="evenodd" clip-rule="evenodd" d="M135.343 181.078C125.839 181.078 118.135 188.784 118.135 198.291C118.135 207.797 125.839 215.504 135.343 215.504C144.846 215.504 152.551 207.797 152.551 198.291C152.551 192.587 157.173 187.963 162.875 187.963C168.577 187.963 173.2 192.587 173.2 198.291C173.2 219.205 156.25 236.159 135.343 236.159C114.435 236.159 97.4855 219.205 97.4855 198.291C97.4855 177.376 114.435 160.422 135.343 160.422C141.045 160.422 145.668 165.046 145.668 170.75C145.668 176.454 141.045 181.078 135.343 181.078Z" fill="#463C74"/>
<path d="M383.873 250.452C383.873 240.946 391.577 233.239 401.081 233.239C410.584 233.239 418.289 240.946 418.289 250.452C418.289 259.958 410.584 267.665 401.081 267.665C395.379 267.665 390.756 272.289 390.756 277.993C390.756 283.696 395.379 288.32 401.081 288.32C421.989 288.32 438.938 271.366 438.938 250.452C438.938 229.538 421.989 212.583 401.081 212.583C380.172 212.583 363.223 229.538 363.223 250.452C363.223 256.156 367.846 260.78 373.548 260.78C379.25 260.78 383.873 256.156 383.873 250.452Z" fill="#80AE51"/>
<path fill-rule="evenodd" clip-rule="evenodd" d="M135.49 181.051C129.795 181.051 125.179 176.433 125.179 170.737C125.179 165.04 129.795 160.422 135.49 160.422C141.185 160.422 145.801 165.04 145.801 170.737C145.801 176.433 141.185 181.051 135.49 181.051Z" fill="#EB6B25"/>
<path fill-rule="evenodd" clip-rule="evenodd" d="M135.49 57.2788C129.795 57.2788 125.179 52.6608 125.179 46.9645C125.179 41.2682 129.795 36.6501 135.49 36.6501C141.185 36.6501 145.801 41.2682 145.801 46.9645C145.801 52.6608 141.185 57.2788 135.49 57.2788Z" fill="#EB6B25"/>
<path fill-rule="evenodd" clip-rule="evenodd" d="M78.3358 236.159C72.6412 236.159 68.0245 231.541 68.0245 225.845C68.0245 220.148 72.6412 215.53 78.3358 215.53C84.0304 215.53 88.6472 220.148 88.6472 225.845C88.6472 231.541 84.0304 236.159 78.3358 236.159Z" fill="#EB6B25"/>
<path fill-rule="evenodd" clip-rule="evenodd" d="M78.925 263.566C73.2304 263.566 68.6137 258.948 68.6137 253.251C68.6137 247.555 73.2304 242.937 78.925 242.937C84.6197 242.937 89.2364 247.555 89.2364 253.251C89.2364 258.948 84.6197 263.566 78.925 263.566Z" fill="#463C74"/>
<path fill-rule="evenodd" clip-rule="evenodd" d="M511.915 161.772C511.915 182.673 494.963 199.617 474.052 199.617H405.211C384.299 199.617 367.348 182.673 367.348 161.772C367.348 140.871 384.299 123.928 405.211 123.928H427.24V102.253C427.24 81.3529 444.191 64.409 465.103 64.409H533.944C543.451 64.409 551.155 56.7073 551.155 47.207V15.5553C551.155 6.055 543.451 -1.64667 533.944 -1.64667C528.244 -1.64667 523.618 -6.26781 523.618 -11.9679C523.618 -17.6681 528.244 -22.2891 533.944 -22.2891C554.858 -22.2891 571.807 -5.34579 571.807 15.5553V47.207C571.807 58.0511 567.243 67.8308 559.932 74.7302C567.243 81.6302 571.807 91.4092 571.807 102.253V133.217C571.807 138.917 567.181 143.538 561.481 143.538C555.781 143.538 551.155 138.917 551.155 133.217V102.253C551.155 92.753 543.451 85.0514 533.944 85.0514H465.103C455.598 85.0514 447.892 92.753 447.892 102.253V123.928H474.052C494.963 123.928 511.915 140.871 511.915 161.772ZM405.211 144.57C395.706 144.57 388 152.272 388 161.772C388 171.273 395.706 178.974 405.211 178.974H474.052C483.557 178.974 491.263 171.273 491.263 161.772C491.263 152.272 483.557 144.57 474.052 144.57H405.211Z" fill="#A680FF"/>
<path fill-rule="evenodd" clip-rule="evenodd" d="M357.376 62.6575C369.119 67.4337 382.419 61.8309 387.138 50.2763C391.857 38.7217 386.27 25.4377 374.527 20.6615C368.039 18.023 361.074 18.5458 355.319 21.5163C350.252 24.1314 344.021 22.1525 341.4 17.0967C338.78 12.0409 340.763 5.82246 345.829 3.20728C356.743 -2.42572 370.019 -3.43166 382.323 1.57263C404.546 10.6103 415.326 35.8743 406.267 58.0559C397.207 80.2382 371.803 90.7848 349.58 81.7471C344.298 79.5985 341.761 73.5834 343.914 68.3125C346.066 63.0409 352.094 60.5096 357.376 62.6575Z" fill="#FFC735"/>
<path fill-rule="evenodd" clip-rule="evenodd" d="M125.152 122.428C125.152 112.953 117.448 105.272 107.944 105.272C98.4398 105.272 90.7362 112.953 90.7362 122.428C90.7362 128.112 86.1135 132.721 80.4115 132.721C74.7088 132.721 70.0867 128.112 70.0867 122.428C70.0867 101.583 87.0358 84.6855 107.944 84.6855C128.852 84.6855 145.801 101.583 145.801 122.428C145.801 128.112 141.179 132.721 135.477 132.721C129.774 132.721 125.152 128.112 125.152 122.428Z" fill="#FFC735"/>
<path fill-rule="evenodd" clip-rule="evenodd" d="M294.553 143.94C294.553 134.466 286.848 126.785 277.345 126.785C267.841 126.785 260.137 134.466 260.137 143.94C260.137 149.625 255.514 154.234 249.812 154.234C244.11 154.234 239.487 149.625 239.487 143.94C239.487 123.096 256.436 106.198 277.345 106.198C298.253 106.198 315.202 123.096 315.202 143.94C315.202 149.625 310.579 154.234 304.877 154.234C299.175 154.234 294.553 149.625 294.553 143.94Z" fill="#463C74"/>
<path d="M35.0282 501.09C61.2245 501.09 82.4604 479.848 82.4604 453.644C82.4604 447.948 87.0771 443.33 92.7717 443.33C98.4663 443.33 103.083 447.948 103.083 453.644C103.083 491.241 72.6137 521.719 35.0282 521.719C29.3336 521.719 24.7169 517.101 24.7169 511.405C24.7169 505.708 29.3336 501.09 35.0282 501.09Z" fill="#80AE51"/>
<path fill-rule="evenodd" clip-rule="evenodd" d="M139.626 257.353C170.034 257.353 194.683 232.697 194.683 202.281C194.683 196.578 199.305 191.955 205.006 191.955C210.707 191.955 215.329 196.578 215.329 202.281C215.329 244.102 181.436 278.006 139.626 278.006C133.925 278.006 129.303 273.382 129.303 267.68C129.303 261.977 133.925 257.353 139.626 257.353Z" fill="#A680FF"/>
<path fill-rule="evenodd" clip-rule="evenodd" d="M135.49 132.721C129.795 132.721 125.179 128.103 125.179 122.407C125.179 116.71 129.795 112.092 135.49 112.092C141.185 112.092 145.801 116.71 145.801 122.407C145.801 128.103 141.185 132.721 135.49 132.721Z" fill="#EB6B25"/>
<path fill-rule="evenodd" clip-rule="evenodd" d="M207.669 67.593C201.975 67.593 197.358 62.975 197.358 57.2787C197.358 51.5824 201.975 46.9644 207.669 46.9644C213.364 46.9644 217.981 51.5824 217.981 57.2787C217.981 62.975 213.364 67.593 207.669 67.593Z" fill="#EB6B25"/>
<path fill-rule="evenodd" clip-rule="evenodd" d="M364.402 278.595C364.402 284.291 369.019 288.909 374.713 288.909C380.408 288.909 385.024 284.291 385.024 278.595C385.024 272.899 380.408 268.281 374.713 268.281C369.019 268.281 364.402 272.899 364.402 278.595Z" fill="#EB6B25"/>
<path fill-rule="evenodd" clip-rule="evenodd" d="M337.003 278.595C337.003 284.291 341.62 288.909 347.314 288.909C353.009 288.909 357.626 284.291 357.626 278.595C357.626 272.899 353.009 268.281 347.314 268.281C341.62 268.281 337.003 272.899 337.003 278.595Z" fill="#EB6B25"/>
<path fill-rule="evenodd" clip-rule="evenodd" d="M447.04 466.638C437.536 466.638 429.832 474.344 429.832 483.851C429.832 493.357 437.536 501.063 447.04 501.063C456.543 501.063 464.248 493.357 464.248 483.851C464.248 474.344 456.543 466.638 447.04 466.638ZM409.182 483.851C409.182 462.936 426.132 445.982 447.04 445.982C467.948 445.982 484.897 462.936 484.897 483.851C484.897 504.765 467.948 521.719 447.04 521.719C426.132 521.719 409.182 504.765 409.182 483.851Z" fill="#FFC735"/>
<path d="M240.671 417.102C246.368 417.102 250.987 421.732 250.987 427.443C250.987 436.961 258.685 444.677 268.181 444.677H336.957C346.453 444.677 354.151 436.961 354.151 427.443C354.151 421.732 358.77 417.102 364.468 417.102C370.165 417.102 374.784 421.732 374.784 427.443C374.784 440.134 368.563 451.369 359.012 458.251C361.435 467.146 369.601 473.631 379.599 473.631H419.489C425.186 473.631 429.805 478.261 429.805 483.972C429.805 489.682 425.186 494.312 419.489 494.312H379.599C360.939 494.312 344.911 482.325 339.552 465.271C338.695 465.329 337.829 465.358 336.957 465.358H268.181C247.29 465.358 230.354 448.383 230.354 427.443C230.354 421.732 234.973 417.102 240.671 417.102Z" fill="#80AE51"/>
<path fill-rule="evenodd" clip-rule="evenodd" d="M155.965 293.919C176.874 293.919 193.823 310.851 193.823 331.739V400.501C193.823 421.388 176.874 438.32 155.965 438.32C135.057 438.32 118.108 421.388 118.108 400.501V331.739C118.108 310.851 135.057 293.919 155.965 293.919ZM173.173 331.739C173.173 322.245 165.469 314.548 155.965 314.548C146.462 314.548 138.758 322.245 138.758 331.739V400.501C138.758 409.995 146.462 417.691 155.965 417.691C165.469 417.691 173.173 409.995 173.173 400.501V331.739Z" fill="#A680FF"/>
<path fill-rule="evenodd" clip-rule="evenodd" d="M240.666 437.731C246.36 437.731 250.977 433.106 250.977 427.401C250.977 417.894 258.671 410.186 268.163 410.186H336.905C346.396 410.186 354.09 417.894 354.09 427.401C354.09 433.106 358.707 437.731 364.402 437.731C370.096 437.731 374.713 433.106 374.713 427.401C374.713 416.549 370.156 406.762 362.854 399.856C370.156 392.951 374.713 383.164 374.713 372.311V340.635C374.713 319.717 357.786 302.76 336.905 302.76C331.21 302.76 326.594 307.385 326.594 313.09C326.594 318.794 331.21 323.419 336.905 323.419C346.396 323.419 354.09 331.127 354.09 340.635V372.311C354.09 381.819 346.396 389.527 336.905 389.527H268.163C268.163 389.527 268.163 389.527 268.163 389.527C247.282 389.527 230.354 406.484 230.354 427.401C230.354 433.106 234.971 437.731 240.666 437.731Z" fill="#A680FF"/>
<path fill-rule="evenodd" clip-rule="evenodd" d="M374.74 427.269C374.74 436.775 382.444 444.482 391.948 444.482C401.451 444.482 409.156 436.775 409.156 427.269C409.156 417.763 401.451 410.056 391.948 410.056C386.246 410.056 381.623 405.432 381.623 399.728C381.623 394.025 386.246 389.401 391.948 389.401C412.856 389.401 429.805 406.355 429.805 427.269C429.805 448.183 412.856 465.137 391.948 465.137C371.04 465.137 354.09 448.183 354.09 427.269C354.09 421.565 358.713 416.941 364.415 416.941C370.117 416.941 374.74 421.565 374.74 427.269Z" fill="#463C74"/>
<path fill-rule="evenodd" clip-rule="evenodd" d="M286.893 342.691C286.893 333.185 279.188 325.478 269.685 325.478C260.181 325.478 252.477 333.185 252.477 342.691C252.477 352.198 260.181 359.904 269.685 359.904C275.387 359.904 280.01 364.528 280.01 370.232C280.01 375.936 275.387 380.56 269.685 380.56C248.777 380.56 231.827 363.606 231.827 342.691C231.827 321.777 248.777 304.823 269.685 304.823C290.593 304.823 307.542 321.777 307.542 342.691C307.542 348.395 302.919 353.019 297.217 353.019C291.515 353.019 286.893 348.395 286.893 342.691Z" fill="#463C74"/>
<path fill-rule="evenodd" clip-rule="evenodd" d="M145.801 398.506C145.801 385.809 135.599 375.601 123.116 375.601C110.634 375.601 100.432 385.809 100.432 398.506C100.432 405.519 103.54 411.778 108.461 415.989C112.793 419.696 113.308 426.223 109.611 430.566C105.914 434.91 99.4052 435.427 95.0737 431.719C85.7427 423.734 79.8088 411.807 79.8088 398.506C79.8088 374.48 99.1522 354.921 123.116 354.921C147.081 354.921 166.424 374.48 166.424 398.506C166.424 404.216 161.807 408.845 156.113 408.845C150.418 408.845 145.801 404.216 145.801 398.506Z" fill="#EB6B25"/>
<path fill-rule="evenodd" clip-rule="evenodd" d="M374.713 427.122C374.713 432.818 370.096 437.436 364.402 437.436C358.707 437.436 354.09 432.818 354.09 427.122C354.09 421.425 358.707 416.807 364.402 416.807C370.096 416.807 374.713 421.425 374.713 427.122Z" fill="#EB6B25"/>
<path fill-rule="evenodd" clip-rule="evenodd" d="M250.977 427.416C250.977 433.113 246.36 437.731 240.666 437.731C234.971 437.731 230.354 433.113 230.354 427.416C230.354 421.72 234.971 417.102 240.666 417.102C246.36 417.102 250.977 421.72 250.977 427.416Z" fill="#EB6B25"/>
<path fill-rule="evenodd" clip-rule="evenodd" d="M316.401 437.758C306.93 437.758 299.251 445.464 299.251 454.97C299.251 464.477 306.93 472.183 316.401 472.183C322.084 472.183 326.692 476.807 326.692 482.511C326.692 488.215 322.084 492.839 316.401 492.839C295.563 492.839 278.67 475.885 278.67 454.97C278.67 434.056 295.563 417.102 316.401 417.102C322.084 417.102 326.692 421.726 326.692 427.43C326.692 433.133 322.084 437.758 316.401 437.758Z" fill="#FFC735"/>
<path fill-rule="evenodd" clip-rule="evenodd" d="M337.574 253.251C324.454 253.251 313.471 264.14 313.471 278.006C313.471 291.871 324.454 302.76 337.574 302.76C343.279 302.76 347.904 307.378 347.904 313.074C347.904 318.771 343.279 323.389 337.574 323.389C312.661 323.389 292.812 302.876 292.812 278.006C292.812 253.135 312.661 232.623 337.574 232.623C343.279 232.623 347.904 237.241 347.904 242.937C347.904 248.633 343.279 253.251 337.574 253.251Z" fill="#FFC735"/>
<path fill-rule="evenodd" clip-rule="evenodd" d="M269.53 380.598C243.314 380.598 222.063 401.88 222.063 428.132C222.063 449.058 205.123 466.022 184.227 466.022C163.33 466.022 146.391 449.058 146.391 428.132C146.391 422.425 151.011 417.799 156.71 417.799C162.408 417.799 167.028 422.425 167.028 428.132C167.028 437.644 174.728 445.355 184.227 445.355C193.725 445.355 201.425 437.644 201.425 428.132C201.425 390.466 231.917 359.931 269.53 359.931C275.229 359.931 279.849 364.558 279.849 370.265C279.849 375.971 275.229 380.598 269.53 380.598Z" fill="#FFC735"/>
<path d="M158.175 293.919C201.455 293.919 236.541 258.823 236.541 215.53C236.541 209.834 241.158 205.216 246.853 205.216C252.547 205.216 257.164 209.834 257.164 215.53C257.164 270.216 212.845 314.548 158.175 314.548C152.48 314.548 147.864 309.93 147.864 304.234C147.864 298.537 152.48 293.919 158.175 293.919Z" fill="#80AE51"/>
<path d="M462.191 -52.3064C425.291 -52.3064 395.377 -22.3839 395.377 14.5272C395.377 20.235 390.751 24.8623 385.045 24.8623C379.339 24.8623 374.713 20.235 374.713 14.5272C374.713 -33.7998 413.879 -72.9766 462.191 -72.9766C467.898 -72.9766 472.524 -68.3494 472.524 -62.6415C472.524 -56.9335 467.898 -52.3064 462.191 -52.3064Z" fill="#80AE51"/>
<path fill-rule="evenodd" clip-rule="evenodd" d="M444.241 419.754C444.241 393.55 423.005 372.308 396.809 372.308C391.114 372.308 386.497 367.69 386.497 361.994C386.497 356.298 391.114 351.68 396.809 351.68C434.394 351.68 464.864 382.158 464.864 419.754C464.864 425.451 460.247 430.069 454.552 430.069C448.858 430.069 444.241 425.451 444.241 419.754Z" fill="#EB6B25"/>
<path fill-rule="evenodd" clip-rule="evenodd" d="M100.448 348.995C83.0112 348.995 68.8759 363.134 68.8759 380.576C68.8759 386.263 64.2665 390.874 58.5808 390.874C52.8951 390.874 48.2856 386.263 48.2856 380.576C48.2856 351.759 71.6392 328.399 100.448 328.399C106.133 328.399 110.743 333.01 110.743 338.697C110.743 344.384 106.133 348.995 100.448 348.995Z" fill="#FFC735"/>
<path fill-rule="evenodd" clip-rule="evenodd" d="M326.692 427.416C326.692 433.113 322.075 437.731 316.38 437.731C310.686 437.731 306.069 433.113 306.069 427.416C306.069 421.72 310.686 417.102 316.38 417.102C322.075 417.102 326.692 421.72 326.692 427.416Z" fill="#EB6B25"/>
<path fill-rule="evenodd" clip-rule="evenodd" d="M280.143 370.245C280.143 375.942 275.527 380.56 269.832 380.56C264.137 380.56 259.521 375.942 259.521 370.245C259.521 364.549 264.137 359.931 269.832 359.931C275.527 359.931 280.143 364.549 280.143 370.245Z" fill="#EB6B25"/>
<path fill-rule="evenodd" clip-rule="evenodd" d="M279.849 285.668C279.849 291.364 275.232 295.982 269.537 295.982C263.843 295.982 259.226 291.364 259.226 285.668C259.226 279.972 263.843 275.354 269.537 275.354C275.232 275.354 279.849 279.972 279.849 285.668Z" fill="#EB6B25"/>
<path fill-rule="evenodd" clip-rule="evenodd" d="M279.849 257.966C279.849 263.663 275.232 268.281 269.537 268.281C263.843 268.281 259.226 263.663 259.226 257.966C259.226 252.27 263.843 247.652 269.537 247.652C275.232 247.652 279.849 252.27 279.849 257.966Z" fill="#EB6B25"/>
<path fill-rule="evenodd" clip-rule="evenodd" d="M260.11 144.214C260.11 149.91 255.493 154.528 249.799 154.528C244.104 154.528 239.487 149.91 239.487 144.214C239.487 138.518 244.104 133.9 249.799 133.9C255.493 133.9 260.11 138.518 260.11 144.214Z" fill="#EB6B25"/>
<path fill-rule="evenodd" clip-rule="evenodd" d="M347.904 313.075C347.904 318.771 343.287 323.389 337.592 323.389C331.898 323.389 327.281 318.771 327.281 313.075C327.281 307.378 331.898 302.76 337.592 302.76C343.287 302.76 347.904 307.378 347.904 313.075Z" fill="#EB6B25"/>
<path fill-rule="evenodd" clip-rule="evenodd" d="M23.9803 -15.8324C14.4768 -15.8324 6.77246 -23.5389 6.77246 -33.0453C6.77246 -42.5517 14.4768 -50.2582 23.9803 -50.2582C33.4839 -50.2582 41.1882 -42.5517 41.1882 -33.0453C41.1882 -23.5389 33.4839 -15.8324 23.9803 -15.8324ZM-13.877 -33.0452C-13.877 -12.1311 3.07206 4.82317 23.9803 4.82317C44.8886 4.82317 61.8377 -12.1311 61.8377 -33.0452C61.8377 -53.9593 44.8886 -70.9136 23.9803 -70.9136C3.07206 -70.9136 -13.877 -53.9594 -13.877 -33.0452Z" fill="#FFC735"/>
<path d="M-83.4441 -14.2368C-77.9977 -31.0504 -62.1683 -43.2124 -43.4897 -43.2124H-3.57666C2.12402 -43.2124 6.74567 -38.6053 6.74567 -32.9222C6.74567 -27.2391 2.12402 -22.6319 -3.57666 -22.6319H-43.4897C-53.2468 -22.6319 -61.4738 -16.102 -64.0134 -7.18695C-54.5215 -0.330345 -48.3463 10.8198 -48.3463 23.4098C-48.3463 29.0945 -52.9631 33.7031 -58.6577 33.7031C-64.3523 33.7031 -68.969 29.0945 -68.969 23.4098C-68.969 13.9352 -76.6633 6.25434 -86.1546 6.25434H-154.897C-164.388 6.25434 -172.082 13.9352 -172.082 23.4098C-172.082 29.0945 -176.699 33.7031 -182.394 33.7031C-188.089 33.7031 -192.705 29.0945 -192.705 23.4098C-192.705 2.56522 -175.778 -14.3322 -154.897 -14.3322H-86.1546C-85.2432 -14.3322 -84.3393 -14.3001 -83.4441 -14.2368H-83.4441Z" fill="#80AE51"/>
<path fill-rule="evenodd" clip-rule="evenodd" d="M-48.3195 23.5363C-48.3195 14.03 -40.6152 6.32344 -31.1117 6.32344C-21.6081 6.32344 -13.9038 14.03 -13.9038 23.5363C-13.9038 33.0427 -21.6081 40.7492 -31.1117 40.7492C-36.8137 40.7492 -41.4364 45.3733 -41.4364 51.077C-41.4364 56.7806 -36.8137 61.4047 -31.1117 61.4047C-10.2034 61.4047 6.74569 44.4507 6.74569 23.5363C6.74569 2.62198 -10.2034 -14.332 -31.1117 -14.332C-52.0199 -14.332 -68.969 2.62198 -68.969 23.5363C-68.969 29.24 -64.3463 33.8641 -58.6443 33.8641C-52.9423 33.8641 -48.3195 29.24 -48.3195 23.5363Z" fill="#463C74"/>
<path fill-rule="evenodd" clip-rule="evenodd" d="M30.9037 125.353C30.9037 119.657 26.287 115.039 20.5923 115.039C14.8977 115.039 10.281 119.657 10.281 125.353C10.281 131.05 14.8977 135.668 20.5923 135.668C26.287 135.668 30.9037 131.05 30.9037 125.353Z" fill="#463C74"/>
<path fill-rule="evenodd" clip-rule="evenodd" d="M59.1862 123.88C59.1862 118.184 54.5694 113.566 48.8748 113.566C43.1802 113.566 38.5635 118.184 38.5635 123.88C38.5635 129.576 43.1802 134.194 48.8748 134.194C54.5694 134.194 59.1862 129.576 59.1862 123.88Z" fill="#463C74"/>
<path fill-rule="evenodd" clip-rule="evenodd" d="M59.1862 152.76C59.1862 147.064 54.5694 142.446 48.8748 142.446C43.1802 142.446 38.5635 147.064 38.5635 152.76C38.5635 158.456 43.1802 163.074 48.8748 163.074C54.5694 163.074 59.1862 158.456 59.1862 152.76Z" fill="#463C74"/>
<path fill-rule="evenodd" clip-rule="evenodd" d="M307.542 370.245C307.542 375.942 302.925 380.56 297.231 380.56C291.536 380.56 286.919 375.942 286.919 370.245C286.919 364.549 291.536 359.931 297.231 359.931C302.925 359.931 307.542 364.549 307.542 370.245Z" fill="#463C74"/>
<path fill-rule="evenodd" clip-rule="evenodd" d="M334.941 370.245C334.941 375.942 330.324 380.56 324.629 380.56C318.935 380.56 314.318 375.942 314.318 370.245C314.318 364.549 318.935 359.931 324.629 359.931C330.324 359.931 334.941 364.549 334.941 370.245Z" fill="#463C74"/>
<path fill-rule="evenodd" clip-rule="evenodd" d="M166.424 304.234C166.424 309.93 161.807 314.548 156.113 314.548C150.418 314.548 145.801 309.93 145.801 304.234C145.801 298.538 150.418 293.919 156.113 293.919C161.807 293.919 166.424 298.538 166.424 304.234Z" fill="#EB6B25"/>
<path fill-rule="evenodd" clip-rule="evenodd" d="M167.013 428.006C167.013 433.702 162.397 438.32 156.702 438.32C151.007 438.32 146.391 433.702 146.391 428.006C146.391 422.309 151.007 417.691 156.702 417.691C162.397 417.691 167.013 422.309 167.013 428.006Z" fill="#EB6B25"/>
<path fill-rule="evenodd" clip-rule="evenodd" d="M281.945 20.7366C270.292 20.7366 260.733 30.2485 260.733 42.1203C260.733 53.9914 270.292 63.5033 281.945 63.5033C324.292 63.5033 358.51 97.9855 358.51 140.383C358.51 146.079 353.885 150.697 348.181 150.697C342.477 150.697 337.853 146.079 337.853 140.383C337.853 109.255 312.761 84.132 281.945 84.132C258.761 84.132 240.077 65.2609 240.077 42.1203C240.077 18.979 258.761 0.10791 281.945 0.10791C287.65 0.10791 292.274 4.72598 292.274 10.4223C292.274 16.1185 287.65 20.7366 281.945 20.7366Z" fill="#FFC735"/>
<path fill-rule="evenodd" clip-rule="evenodd" d="M337.592 140.406C337.592 171.718 312.563 196.918 281.911 196.918C276.216 196.918 271.6 201.547 271.6 207.256C271.6 212.965 276.216 217.593 281.911 217.593C324.153 217.593 358.215 182.934 358.215 140.406C358.215 134.697 353.598 130.069 347.904 130.069C342.209 130.069 337.592 134.697 337.592 140.406Z" fill="#EB6B25"/>
<path fill-rule="evenodd" clip-rule="evenodd" d="M347.904 150.697C342.209 150.697 337.592 146.079 337.592 140.383C337.592 134.687 342.209 130.069 347.904 130.069C353.598 130.069 358.215 134.687 358.215 140.383C358.215 146.079 353.598 150.697 347.904 150.697Z" fill="#463C74"/>
<path fill-rule="evenodd" clip-rule="evenodd" d="M207.669 77.9077C213.364 77.9077 217.981 82.5327 217.981 88.2376V133C217.981 138.705 213.364 143.33 207.669 143.33C201.975 143.33 197.358 138.705 197.358 133V88.2376C197.358 82.5327 201.975 77.9077 207.669 77.9077Z" fill="#A680FF"/>
<path fill-rule="evenodd" clip-rule="evenodd" d="M38.5433 19.8625C38.5433 58.2563 7.42837 89.3804 -30.9543 89.3804C-36.6544 89.3804 -41.2757 94.003 -41.2757 99.7048C-41.2757 105.407 -36.6544 110.029 -30.9543 110.029C18.8287 110.029 59.1862 69.66 59.1862 19.8625C59.1862 14.1607 54.5649 9.53809 48.8648 9.53809C43.1646 9.53809 38.5433 14.1607 38.5433 19.8625Z" fill="#A680FF"/>
<path d="M378.248 41.9547C378.248 47.651 373.623 52.2691 367.918 52.2691H280.457C274.752 52.2691 270.127 47.651 270.127 41.9547C270.127 36.2585 274.752 31.6404 280.457 31.6404H367.918C373.623 31.6404 378.248 36.2585 378.248 41.9547Z" fill="#80AE51"/>
<path fill-rule="evenodd" clip-rule="evenodd" d="M59.1862 19.8524C59.1862 14.1562 54.5694 9.53809 48.8748 9.53809C43.1802 9.53809 38.5635 14.1562 38.5635 19.8524C38.5635 25.5487 43.1802 30.1668 48.8748 30.1668C54.5694 30.1668 59.1862 25.5487 59.1862 19.8524Z" fill="#EB6B25"/>
<path fill-rule="evenodd" clip-rule="evenodd" d="M357.552 19.7785C353.525 23.8066 346.996 23.8066 342.969 19.7785C338.942 15.7504 338.942 9.21938 342.969 5.19197C346.996 1.16387 353.525 1.16387 357.552 5.19197C361.579 9.21938 361.579 15.7504 357.552 19.7785Z" fill="#463C74"/>
<path fill-rule="evenodd" clip-rule="evenodd" d="M249.815 -6.70253C232.378 -6.70253 218.243 7.43683 218.243 24.8785C218.243 30.5658 213.634 35.1766 207.948 35.1766C202.262 35.1766 197.653 30.5658 197.653 24.8785C197.653 -3.93851 221.006 -27.2988 249.815 -27.2988C255.5 -27.2988 260.11 -22.6882 260.11 -17.0007C260.11 -11.3131 255.5 -6.70253 249.815 -6.70253Z" fill="#EB6B25"/>
<path fill-rule="evenodd" clip-rule="evenodd" d="M200.673 17.5689C204.699 13.5408 211.228 13.5408 215.255 17.5689C219.282 21.597 219.282 28.1274 215.255 32.1555C211.228 36.1836 204.699 36.1836 200.673 32.1555C196.646 28.1274 196.646 21.597 200.673 17.5689Z" fill="#463C74"/>
<path fill-rule="evenodd" clip-rule="evenodd" d="M405.058 319.263C441.504 319.263 471.05 289.708 471.05 253.251C471.05 247.555 475.667 242.937 481.362 242.937C487.056 242.937 491.673 247.555 491.673 253.251C491.673 301.102 452.894 339.892 405.058 339.892C399.363 339.892 394.747 335.274 394.747 329.577C394.747 323.881 399.363 319.263 405.058 319.263Z" fill="#A680FF"/>
<path fill-rule="evenodd" clip-rule="evenodd" d="M378.248 41.9028C378.277 47.5992 373.684 52.2407 367.989 52.2689C362.294 52.2978 357.655 47.7037 357.626 42.0066C357.597 36.3103 362.191 31.6694 367.885 31.6405C373.58 31.6116 378.22 36.2064 378.248 41.9028Z" fill="#EB6B25"/>
</g>
</g>
<defs>
<clipPath id="clip0_115_1007">
<rect width="800" height="537.841" fill="white" transform="translate(-193 -77.9868)"/>
</clipPath>
</defs>
</svg>
