<svg width="412" height="216" viewBox="0 0 412 216" fill="none" xmlns="http://www.w3.org/2000/svg">
<g clip-path="url(#clip0_113_440)">
<rect width="800" height="600" transform="translate(-194 -384)" fill="white"/>
<rect x="-194" y="-384" width="800" height="600" fill="white"/>
<mask id="mask0_113_440" style="mask-type:alpha" maskUnits="userSpaceOnUse" x="-194" y="-384" width="800" height="600">
<rect x="-194" y="-384" width="800" height="600" fill="#FBF4E2"/>
</mask>
<g mask="url(#mask0_113_440)">
<path fill-rule="evenodd" clip-rule="evenodd" d="M-72.0312 205.981C-72.0312 200.285 -67.4145 195.667 -61.7199 195.667H0.148117C5.84273 195.667 10.4595 200.285 10.4595 205.981C10.4595 211.677 5.84273 216.295 0.148117 216.295H-61.7199C-67.4145 216.295 -72.0312 211.677 -72.0312 205.981Z" fill="#F2F2F2"/>
<path fill-rule="evenodd" clip-rule="evenodd" d="M-152.165 161.776C-152.165 167.473 -147.547 172.091 -141.851 172.091H-109.876C-99.0391 172.091 -89.2666 167.532 -82.3711 160.229C-75.4756 167.532 -65.7031 172.091 -54.8661 172.091H-23.2354C-2.34805 172.091 14.584 155.159 14.584 134.271C14.584 128.575 9.96594 123.957 4.26965 123.957C-1.42663 123.957 -6.04472 128.575 -6.04472 134.271C-6.04472 143.765 -13.7413 151.462 -23.2354 151.462H-54.8661C-64.3601 151.462 -72.0567 143.765 -72.0567 134.271V64.8216C-72.0567 44.3146 -88.6814 27.6899 -109.188 27.6899V48.3186C-100.074 48.3186 -92.6855 55.7071 -92.6855 64.8216V134.271C-92.6855 143.765 -100.382 151.462 -109.876 151.462H-141.851C-147.547 151.462 -152.165 156.08 -152.165 161.776Z" fill="#F2F2F2"/>
<path d="M-18.265 78.6457C-8.7614 78.6457 -1.05709 70.9392 -1.05709 61.4328C-1.05709 51.9265 -8.7614 44.2199 -18.265 44.2199C-27.7685 44.2199 -35.4729 51.9265 -35.4729 61.4328C-35.4729 67.1365 -40.0956 71.7606 -45.7976 71.7606C-51.4996 71.7606 -56.1223 67.1365 -56.1223 61.4328C-56.1223 40.5185 -39.1732 23.5645 -18.265 23.5645C2.64329 23.5645 19.5924 40.5185 19.5924 61.4328C19.5924 82.3472 2.64329 99.3012 -18.265 99.3012C-23.967 99.3012 -28.5897 94.6771 -28.5897 88.9735C-28.5897 83.2698 -23.967 78.6457 -18.265 78.6457Z" fill="#F2F2F2"/>
<path fill-rule="evenodd" clip-rule="evenodd" d="M49.0266 134.391C49.0266 124.916 41.3223 117.236 31.8188 117.236C22.3152 117.236 14.6109 124.916 14.6109 134.391C14.6109 140.076 9.98816 144.684 4.28616 144.684C-1.41585 144.684 -6.03857 140.076 -6.03857 134.391C-6.03857 113.546 10.9105 96.6489 31.8188 96.6489C52.727 96.6489 69.6761 113.546 69.6761 134.391C69.6761 140.076 65.0534 144.684 59.3514 144.684C53.6494 144.684 49.0266 140.076 49.0266 134.391Z" fill="#F2F2F2"/>
<path d="M31.0821 -49.2255C31.0821 -23.0215 52.318 -1.77948 78.5143 -1.77948C84.2089 -1.77948 88.8256 2.83859 88.8256 8.53486C88.8256 14.2311 84.2089 18.8492 78.5143 18.8492C40.9288 18.8492 10.4595 -11.629 10.4595 -49.2255C10.4595 -54.9217 15.0762 -59.5398 20.7708 -59.5398C26.4654 -59.5398 31.0821 -54.9217 31.0821 -49.2255Z" fill="#F2F2F2"/>
<path fill-rule="evenodd" clip-rule="evenodd" d="M4.27276 144.684C-1.42184 144.684 -6.03857 140.066 -6.03857 134.37C-6.03857 128.673 -1.42184 124.055 4.27276 124.055C9.96737 124.055 14.5841 128.673 14.5841 134.37C14.5841 140.066 9.96737 144.684 4.27276 144.684Z" fill="#F2F2F2"/>
<path fill-rule="evenodd" clip-rule="evenodd" d="M31.9659 148.22C26.2713 148.22 21.6545 143.602 21.6545 137.906C21.6545 132.21 26.2713 127.592 31.9659 127.592C37.6605 127.592 42.2772 132.21 42.2772 137.906C42.2772 143.602 37.6605 148.22 31.9659 148.22Z" fill="#F2F2F2"/>
<path fill-rule="evenodd" clip-rule="evenodd" d="M31.9659 175.627C26.2713 175.627 21.6545 171.009 21.6545 165.313C21.6545 159.617 26.2713 154.999 31.9659 154.999C37.6605 154.999 42.2772 159.617 42.2772 165.313C42.2772 171.009 37.6605 175.627 31.9659 175.627Z" fill="#F2F2F2"/>
<path d="M34.0281 195.077C60.2244 195.077 81.4603 173.835 81.4603 147.631C81.4603 141.935 86.077 137.317 91.7716 137.317C97.4662 137.317 102.083 141.935 102.083 147.631C102.083 185.228 71.6136 215.706 34.0281 215.706C28.3335 215.706 23.7168 211.088 23.7168 205.392C23.7168 199.695 28.3335 195.077 34.0281 195.077Z" fill="#F2F2F2"/>
<path fill-rule="evenodd" clip-rule="evenodd" d="M446.04 160.625C436.536 160.625 428.832 168.331 428.832 177.837C428.832 187.344 436.536 195.05 446.04 195.05C455.544 195.05 463.248 187.344 463.248 177.837C463.248 168.331 455.544 160.625 446.04 160.625ZM408.183 177.837C408.183 156.923 425.132 139.969 446.04 139.969C466.948 139.969 483.897 156.923 483.897 177.837C483.897 198.752 466.948 215.706 446.04 215.706C425.132 215.706 408.183 198.752 408.183 177.837Z" fill="#F2F2F2"/>
<path d="M239.671 111.089C245.368 111.089 249.987 115.719 249.987 121.43C249.987 130.948 257.685 138.664 267.181 138.664H335.957C345.453 138.664 353.152 130.948 353.152 121.43C353.152 115.719 357.771 111.089 363.468 111.089C369.165 111.089 373.784 115.719 373.784 121.43C373.784 134.121 367.564 145.356 358.012 152.238C360.436 161.133 368.601 167.618 378.599 167.618H418.489C424.186 167.618 428.805 172.248 428.805 177.958C428.805 183.669 424.186 188.299 418.489 188.299H378.599C359.939 188.299 343.911 176.312 338.552 159.258C337.695 159.316 336.83 159.345 335.957 159.345H267.181C246.29 159.345 229.354 142.37 229.354 121.43C229.354 115.719 233.973 111.089 239.671 111.089Z" fill="#F2F2F2"/>
<path fill-rule="evenodd" clip-rule="evenodd" d="M154.965 -12.0938C175.874 -12.0938 192.823 4.83827 192.823 25.7255V94.4878C192.823 115.375 175.874 132.307 154.965 132.307C134.057 132.307 117.108 115.375 117.108 94.4878V25.7255C117.108 4.83827 134.057 -12.0938 154.965 -12.0938ZM172.173 25.7254C172.173 16.2314 164.469 8.53479 154.966 8.53479C145.462 8.53479 137.758 16.2314 137.758 25.7254V94.4876C137.758 103.982 145.462 111.678 154.966 111.678C164.469 111.678 172.173 103.982 172.173 94.4876V25.7254Z" fill="#F2F2F2"/>
<path fill-rule="evenodd" clip-rule="evenodd" d="M239.666 131.718C245.36 131.718 249.977 127.093 249.977 121.388C249.977 111.88 257.671 104.173 267.163 104.173V104.173H335.905C345.396 104.173 353.091 111.88 353.091 121.388C353.091 127.093 357.707 131.718 363.402 131.718C369.096 131.718 373.713 127.093 373.713 121.388C373.713 110.535 369.156 100.749 361.855 93.8432C369.156 86.9377 373.713 77.1509 373.713 66.2982V34.6215C373.713 13.7038 356.786 -3.25293 335.905 -3.25293C330.21 -3.25293 325.594 1.37188 325.594 7.07645C325.594 12.781 330.21 17.4058 335.905 17.4058C345.396 17.4058 353.091 25.1136 353.091 34.6215V66.2982C353.091 75.8061 345.396 83.5138 335.905 83.5138H267.163C267.163 83.5138 267.163 83.5138 267.163 83.5138C246.282 83.5138 229.354 100.471 229.354 121.388C229.354 127.093 233.971 131.718 239.666 131.718Z" fill="#F2F2F2"/>
<path fill-rule="evenodd" clip-rule="evenodd" d="M373.74 121.256C373.74 130.762 381.444 138.469 390.948 138.469C400.451 138.469 408.156 130.762 408.156 121.256C408.156 111.749 400.451 104.043 390.948 104.043C385.246 104.043 380.623 99.4189 380.623 93.7152C380.623 88.0115 385.246 83.3875 390.948 83.3875C411.856 83.3875 428.805 100.341 428.805 121.256C428.805 142.17 411.856 159.124 390.948 159.124C370.039 159.124 353.09 142.17 353.09 121.256C353.09 115.552 357.713 110.928 363.415 110.928C369.117 110.928 373.74 115.552 373.74 121.256Z" fill="#A680FF"/>
<path fill-rule="evenodd" clip-rule="evenodd" d="M285.893 36.6782C285.893 27.1718 278.188 19.4653 268.685 19.4653C259.181 19.4653 251.477 27.1718 251.477 36.6782C251.477 46.1845 259.181 53.8911 268.685 53.8911C274.387 53.8911 279.009 58.5152 279.009 64.2188C279.009 69.9225 274.387 74.5466 268.685 74.5466C247.776 74.5466 230.827 57.5925 230.827 36.6782C230.827 15.7638 247.776 -1.19019 268.685 -1.19019C289.593 -1.19019 306.542 15.7638 306.542 36.6782C306.542 42.3818 301.919 47.0059 296.217 47.0059C290.515 47.0059 285.893 42.3818 285.893 36.6782Z" fill="#80AE51"/>
<path fill-rule="evenodd" clip-rule="evenodd" d="M144.801 92.4924C144.801 79.7963 134.599 69.588 122.116 69.588C109.634 69.588 99.4315 79.7963 99.4315 92.4924C99.4315 99.5063 102.54 105.765 107.461 109.976C111.793 113.683 112.308 120.21 108.611 124.553C104.914 128.897 98.4052 129.413 94.0737 125.706C84.7427 117.721 78.8088 105.794 78.8088 92.4924C78.8088 68.4672 98.1522 48.9082 122.116 48.9082C146.081 48.9082 165.424 68.4672 165.424 92.4924C165.424 98.2027 160.807 102.832 155.113 102.832C149.418 102.832 144.801 98.2027 144.801 92.4924Z" fill="#F2F2F2"/>
<path fill-rule="evenodd" clip-rule="evenodd" d="M373.713 121.109C373.713 126.805 369.096 131.423 363.402 131.423C357.707 131.423 353.09 126.805 353.09 121.109C353.09 115.412 357.707 110.794 363.402 110.794C369.096 110.794 373.713 115.412 373.713 121.109Z" fill="#F2F2F2"/>
<path fill-rule="evenodd" clip-rule="evenodd" d="M249.977 121.403C249.977 127.099 245.36 131.718 239.666 131.718C233.971 131.718 229.354 127.099 229.354 121.403C229.354 115.707 233.971 111.089 239.666 111.089C245.36 111.089 249.977 115.707 249.977 121.403Z" fill="#F2F2F2"/>
<path fill-rule="evenodd" clip-rule="evenodd" d="M428.805 177.985C428.805 183.681 424.189 188.299 418.494 188.299C412.799 188.299 408.183 183.681 408.183 177.985C408.183 172.288 412.799 167.67 418.494 167.67C424.189 167.67 428.805 172.288 428.805 177.985Z" fill="#F2F2F2"/>
<path fill-rule="evenodd" clip-rule="evenodd" d="M315.401 131.744C305.93 131.744 298.251 139.451 298.251 148.957C298.251 158.464 305.93 166.17 315.401 166.17C321.084 166.17 325.692 170.794 325.692 176.498C325.692 182.202 321.084 186.826 315.401 186.826C294.563 186.826 277.67 169.872 277.67 148.957C277.67 128.043 294.563 111.089 315.401 111.089C321.084 111.089 325.692 115.713 325.692 121.417C325.692 127.12 321.084 131.744 315.401 131.744Z" fill="#F2F2F2"/>
<path fill-rule="evenodd" clip-rule="evenodd" d="M336.574 -52.7619C323.454 -52.7619 312.471 -41.8727 312.471 -28.0075C312.471 -14.1423 323.454 -3.2531 336.574 -3.2531C342.279 -3.2531 346.904 1.36497 346.904 7.06124C346.904 12.7575 342.279 17.3756 336.574 17.3756C311.66 17.3756 291.812 -3.13689 291.812 -28.0075C291.812 -52.8782 311.66 -73.3906 336.574 -73.3906C342.279 -73.3906 346.904 -68.7726 346.904 -63.0763C346.904 -57.38 342.279 -52.7619 336.574 -52.7619Z" fill="#F2F2F2"/>
<path fill-rule="evenodd" clip-rule="evenodd" d="M268.53 74.5849C242.314 74.5849 221.063 95.8664 221.063 122.119C221.063 143.045 204.123 160.008 183.227 160.008C162.33 160.008 145.391 143.045 145.391 122.119C145.391 116.412 150.011 111.785 155.71 111.785C161.408 111.785 166.028 116.412 166.028 122.119C166.028 131.631 173.728 139.341 183.227 139.341C192.725 139.341 200.425 131.631 200.425 122.119C200.425 84.4527 230.917 53.918 268.53 53.918C274.229 53.918 278.849 58.5446 278.849 64.2514C278.849 69.9583 274.229 74.5849 268.53 74.5849Z" fill="#F2F2F2"/>
<path d="M157.175 -12.0938C200.455 -12.0938 235.541 -47.19 235.541 -90.4828C235.541 -96.179 240.158 -100.797 245.853 -100.797C251.547 -100.797 256.164 -96.179 256.164 -90.4828C256.164 -35.7968 211.845 8.5349 157.175 8.5349C151.48 8.5349 146.864 3.91683 146.864 -1.77943C146.864 -7.4757 151.48 -12.0938 157.175 -12.0938Z" fill="#F2F2F2"/>
<path fill-rule="evenodd" clip-rule="evenodd" d="M443.241 113.741C443.241 87.5372 422.005 66.2952 395.809 66.2952C390.114 66.2952 385.498 61.6771 385.498 55.9808C385.498 50.2846 390.114 45.6665 395.809 45.6665C433.394 45.6665 463.864 76.1447 463.864 113.741C463.864 119.437 459.247 124.056 453.552 124.056C447.858 124.056 443.241 119.437 443.241 113.741Z" fill="#FFC735"/>
<path fill-rule="evenodd" clip-rule="evenodd" d="M99.4477 42.9818C82.0112 42.9818 67.8759 57.1212 67.8759 74.5628C67.8759 80.2501 63.2665 84.8609 57.5808 84.8609C51.8951 84.8609 47.2856 80.2501 47.2856 74.5628C47.2856 45.7458 70.6392 22.3855 99.4477 22.3855C105.133 22.3855 109.743 26.9963 109.743 32.6836C109.743 38.371 105.133 42.9818 99.4477 42.9818Z" fill="#F2F2F2"/>
<path fill-rule="evenodd" clip-rule="evenodd" d="M325.692 121.403C325.692 127.099 321.075 131.718 315.38 131.718C309.686 131.718 305.069 127.099 305.069 121.403C305.069 115.707 309.686 111.089 315.38 111.089C321.075 111.089 325.692 115.707 325.692 121.403Z" fill="#F2F2F2"/>
<path fill-rule="evenodd" clip-rule="evenodd" d="M279.143 64.2323C279.143 69.9286 274.527 74.5467 268.832 74.5467C263.137 74.5467 258.521 69.9286 258.521 64.2323C258.521 58.536 263.137 53.918 268.832 53.918C274.527 53.918 279.143 58.536 279.143 64.2323Z" fill="#F2F2F2"/>
<path fill-rule="evenodd" clip-rule="evenodd" d="M346.904 7.06141C346.904 12.7577 342.287 17.3758 336.592 17.3758C330.898 17.3758 326.281 12.7577 326.281 7.06141C326.281 1.36514 330.898 -3.25293 336.592 -3.25293C342.287 -3.25293 346.904 1.36514 346.904 7.06141Z" fill="#F2F2F2"/>
<path fill-rule="evenodd" clip-rule="evenodd" d="M41.6881 205.391C41.6881 199.695 37.0714 195.077 31.3768 195.077C25.6822 195.077 21.0654 199.695 21.0654 205.391C21.0654 211.088 25.6822 215.706 31.3768 215.706C37.0714 215.706 41.6881 211.088 41.6881 205.391Z" fill="#F2F2F2"/>
<path fill-rule="evenodd" clip-rule="evenodd" d="M306.542 64.2323C306.542 69.9286 301.925 74.5467 296.231 74.5467C290.536 74.5467 285.919 69.9286 285.919 64.2323C285.919 58.536 290.536 53.918 296.231 53.918C301.925 53.918 306.542 58.536 306.542 64.2323Z" fill="#F2F2F2"/>
<path fill-rule="evenodd" clip-rule="evenodd" d="M333.941 64.2323C333.941 69.9286 329.324 74.5467 323.629 74.5467C317.935 74.5467 313.318 69.9286 313.318 64.2323C313.318 58.536 317.935 53.918 323.629 53.918C329.324 53.918 333.941 58.536 333.941 64.2323Z" fill="#F2F2F2"/>
<path fill-rule="evenodd" clip-rule="evenodd" d="M165.424 -1.77941C165.424 3.91686 160.807 8.53493 155.113 8.53493C149.418 8.53493 144.801 3.91686 144.801 -1.77941C144.801 -7.47568 149.418 -12.0938 155.113 -12.0938C160.807 -12.0938 165.424 -7.47568 165.424 -1.77941Z" fill="#F2F2F2"/>
<path fill-rule="evenodd" clip-rule="evenodd" d="M166.013 121.993C166.013 127.689 161.397 132.307 155.702 132.307C150.007 132.307 145.391 127.689 145.391 121.993C145.391 116.296 150.007 111.678 155.702 111.678C161.397 111.678 166.013 116.296 166.013 121.993Z" fill="#F2F2F2"/>
<path fill-rule="evenodd" clip-rule="evenodd" d="M134.49 214.232C128.795 214.232 124.179 209.623 124.179 203.938V174.428C124.179 168.743 128.795 164.134 134.49 164.134C140.185 164.134 144.801 168.743 144.801 174.428V203.938C144.801 209.623 140.185 214.232 134.49 214.232Z" fill="#F2F2F2"/>
<path fill-rule="evenodd" clip-rule="evenodd" d="M183.984 205.981C183.984 200.285 188.606 195.667 194.306 195.667H276.187C281.887 195.667 286.509 200.285 286.509 205.981C286.509 211.677 281.887 216.295 276.187 216.295H194.306C188.606 216.295 183.984 211.677 183.984 205.981Z" fill="#A680FF"/>
<path fill-rule="evenodd" clip-rule="evenodd" d="M278.849 216.295C273.154 216.295 268.538 211.677 268.538 205.981C268.538 200.285 273.154 195.667 278.849 195.667C284.544 195.667 289.16 200.285 289.16 205.981C289.16 211.677 284.544 216.295 278.849 216.295Z" fill="#FFC735"/>
<path fill-rule="evenodd" clip-rule="evenodd" d="M404.058 13.25C440.504 13.25 470.05 -16.3048 470.05 -52.7618C470.05 -58.4581 474.667 -63.0762 480.362 -63.0762C486.056 -63.0762 490.673 -58.4581 490.673 -52.7618C490.673 -4.91153 451.894 33.8786 404.058 33.8786C398.363 33.8786 393.747 29.2606 393.747 23.5643C393.747 17.868 398.363 13.25 404.058 13.25Z" fill="#F2F2F2"/>
</g>
</g>
<defs>
<clipPath id="clip0_113_440">
<rect width="800" height="600" fill="white" transform="translate(-194 -384)"/>
</clipPath>
</defs>
</svg>
