<svg width="412" height="292" viewBox="0 0 412 292" fill="none" xmlns="http://www.w3.org/2000/svg">
<g clip-path="url(#clip0_115_833)">
<rect width="800" height="600" transform="translate(-194)" fill="white"/>
<rect x="-194" width="800" height="600" fill="white"/>
<mask id="mask0_115_833" style="mask-type:alpha" maskUnits="userSpaceOnUse" x="-194" y="0" width="800" height="600">
<rect x="-194" width="800" height="600" fill="#FBF4E2"/>
</mask>
<g mask="url(#mask0_115_833)">
<path d="M-42.5397 322.397C-29.8474 322.397 -19.6421 312.192 -19.6421 299.706C-19.6421 287.219 -29.8474 277.014 -42.5397 277.014C-49.5516 277.014 -55.8082 280.124 -60.0181 285.046C-63.7242 289.379 -70.2488 289.894 -74.591 286.196C-78.9339 282.498 -79.4501 275.988 -75.7439 271.655C-67.7611 262.321 -55.8371 256.385 -42.5397 256.385C-18.5216 256.385 1.03174 275.735 1.03174 299.706C1.03174 323.677 -18.5216 343.026 -42.5397 343.026C-48.2485 343.026 -52.8766 338.408 -52.8766 332.712C-52.8766 327.015 -48.2485 322.397 -42.5397 322.397Z" fill="#F2F7EE"/>
<path fill-rule="evenodd" clip-rule="evenodd" d="M121.469 56.9764C128.189 50.2727 128.189 39.4038 121.469 32.7001C114.749 25.9964 103.853 25.9964 97.1332 32.7001C90.4131 39.4038 90.4131 50.2727 97.1332 56.9764C101.165 60.9985 101.165 67.5201 97.1332 71.5418C93.101 75.5641 86.5634 75.5641 82.5319 71.5418C67.7475 56.7939 67.7475 32.8825 82.5319 18.1343C97.3156 3.38622 121.286 3.38621 136.07 18.1343C150.854 32.8825 150.854 56.7939 136.07 71.5418C132.038 75.5641 125.501 75.5641 121.469 71.5418C117.437 67.5201 117.437 60.9985 121.469 56.9764Z" fill="#F2F7EE"/>
<path fill-rule="evenodd" clip-rule="evenodd" d="M83.0075 57.2454C87.0344 53.2174 93.5629 53.2174 97.5898 57.2454C101.617 61.2734 101.617 67.8039 97.5898 71.832C93.5629 75.8601 87.0344 75.8601 83.0075 71.832C78.9806 67.8039 78.9806 61.2734 83.0075 57.2454Z" fill="#F2F7EE"/>
<path fill-rule="evenodd" clip-rule="evenodd" d="M241.118 26.2689C203.079 26.2689 172.241 57.1155 172.241 95.1667C172.241 100.874 167.615 105.501 161.909 105.501C156.203 105.501 151.577 100.874 151.577 95.1667C151.577 45.7002 191.666 5.59961 241.118 5.59961C246.824 5.59961 251.45 10.2266 251.45 15.9343C251.45 21.642 246.824 26.2689 241.118 26.2689Z" fill="#F2F7EE"/>
<path fill-rule="evenodd" clip-rule="evenodd" d="M339.517 89.872C339.517 54.8973 311.172 26.5447 276.208 26.5447C270.508 26.5447 265.886 21.922 265.886 16.2196C265.886 10.5172 270.508 5.89453 276.208 5.89453C322.574 5.89453 360.161 43.4925 360.161 89.872C360.161 95.5742 355.54 100.197 349.839 100.197C344.138 100.197 339.517 95.5742 339.517 89.872Z" fill="#F2F7EE"/>
<path fill-rule="evenodd" clip-rule="evenodd" d="M17.5299 285.855C17.5299 258.512 -4.62918 236.346 -31.9645 236.346C-37.6591 236.346 -42.2759 231.728 -42.2759 226.032C-42.2759 220.336 -37.6591 215.718 -31.9645 215.718C6.76003 215.718 38.1526 247.119 38.1526 285.855C38.1526 291.551 33.5358 296.169 27.8412 296.169C22.1466 296.169 17.5299 291.551 17.5299 285.855Z" fill="#F2F7EE"/>
<path fill-rule="evenodd" clip-rule="evenodd" d="M124.179 124.951C124.179 130.648 128.801 135.266 134.505 135.266C144.01 135.266 151.716 142.962 151.716 152.456V221.218C151.716 230.713 144.01 238.409 134.505 238.409C128.801 238.409 124.179 243.027 124.179 248.723C124.179 254.42 128.801 259.038 134.505 259.038C145.355 259.038 155.139 254.479 162.042 247.176C168.945 254.479 178.729 259.038 189.579 259.038H221.247C242.158 259.038 259.11 242.106 259.11 221.218C259.11 215.522 254.486 210.904 248.784 210.904C243.081 210.904 238.457 215.522 238.457 221.218C238.457 230.713 230.752 238.409 221.247 238.409H189.579C180.074 238.409 172.368 230.713 172.368 221.218V152.456C172.368 131.569 155.416 114.637 134.505 114.637C128.801 114.637 124.179 119.255 124.179 124.951Z" fill="#F2F7EE"/>
<path d="M144.801 248.789C144.801 243.09 140.179 238.47 134.477 238.47C124.974 238.47 117.27 230.77 117.27 221.271V152.475C117.27 142.976 124.974 135.276 134.477 135.276C140.179 135.276 144.801 130.655 144.801 124.956C144.801 119.257 140.179 114.637 134.477 114.637C113.569 114.637 96.621 131.577 96.621 152.475V221.271C96.621 222.118 96.6485 222.958 96.7035 223.79C79.5203 229.048 67.0244 245.028 67.0244 263.925V303.826C67.0244 309.525 71.647 314.146 77.3488 314.146C83.0506 314.146 87.6732 309.525 87.6732 303.826V263.925C87.6732 253.988 94.4721 245.639 103.673 243.271C110.541 252.859 121.779 259.109 134.477 259.109C140.179 259.109 144.801 254.489 144.801 248.789Z" fill="#F2F7EE"/>
<path fill-rule="evenodd" clip-rule="evenodd" d="M134.343 259.065C124.838 259.065 117.135 266.771 117.135 276.278C117.135 285.784 124.838 293.49 134.343 293.49C143.846 293.49 151.551 285.784 151.551 276.278C151.551 270.574 156.173 265.95 161.875 265.95C167.577 265.95 172.2 270.574 172.2 276.278C172.2 297.192 155.25 314.146 134.343 314.146C113.434 314.146 96.4854 297.192 96.4854 276.278C96.4854 255.363 113.434 238.409 134.343 238.409C140.045 238.409 144.667 243.033 144.667 248.737C144.667 254.441 140.045 259.065 134.343 259.065Z" fill="#F2F7EE"/>
<path d="M382.873 328.439C382.873 318.932 390.577 311.226 400.081 311.226C409.584 311.226 417.289 318.932 417.289 328.439C417.289 337.945 409.584 345.652 400.081 345.652C394.379 345.652 389.756 350.276 389.756 355.979C389.756 361.683 394.379 366.307 400.081 366.307C420.989 366.307 437.938 349.353 437.938 328.439C437.938 307.524 420.989 290.57 400.081 290.57C379.172 290.57 362.223 307.524 362.223 328.439C362.223 334.142 366.846 338.766 372.548 338.766C378.25 338.766 382.873 334.142 382.873 328.439Z" fill="#F2F7EE"/>
<path fill-rule="evenodd" clip-rule="evenodd" d="M134.49 259.038C128.795 259.038 124.179 254.42 124.179 248.724C124.179 243.027 128.795 238.409 134.49 238.409C140.185 238.409 144.801 243.027 144.801 248.724C144.801 254.42 140.185 259.038 134.49 259.038Z" fill="#F2F7EE"/>
<path fill-rule="evenodd" clip-rule="evenodd" d="M134.49 135.266C128.795 135.266 124.179 130.648 124.179 124.951C124.179 119.255 128.795 114.637 134.49 114.637C140.185 114.637 144.801 119.255 144.801 124.951C144.801 130.648 140.185 135.266 134.49 135.266Z" fill="#F2F7EE"/>
<path fill-rule="evenodd" clip-rule="evenodd" d="M510.915 239.759C510.915 260.66 493.963 277.603 473.052 277.603H404.211C383.299 277.603 366.348 260.66 366.348 239.759C366.348 218.858 383.299 201.915 404.211 201.915H426.24V180.24C426.24 159.34 443.191 142.396 464.103 142.396H532.944C542.451 142.396 550.155 134.694 550.155 125.194V93.5421C550.155 84.0418 542.451 76.3401 532.944 76.3401C527.244 76.3401 522.618 71.719 522.618 66.0189C522.618 60.3187 527.244 55.6978 532.944 55.6978C553.858 55.6978 570.807 72.641 570.807 93.5421V125.194C570.807 136.038 566.243 145.818 558.932 152.717C566.243 159.617 570.807 169.396 570.807 180.24V211.204C570.807 216.904 566.181 221.525 560.481 221.525C554.781 221.525 550.155 216.904 550.155 211.204V180.24C550.155 170.74 542.451 163.038 532.944 163.038H464.103C454.598 163.038 446.892 170.74 446.892 180.24V201.915H473.052C493.963 201.915 510.915 218.858 510.915 239.759ZM404.211 222.557C394.706 222.557 387 230.259 387 239.759C387 249.26 394.706 256.961 404.211 256.961H473.052C482.557 256.961 490.263 249.26 490.263 239.759C490.263 230.259 482.557 222.557 473.052 222.557H404.211Z" fill="#F2F7EE"/>
<path fill-rule="evenodd" clip-rule="evenodd" d="M356.376 140.644C368.119 145.421 381.419 139.818 386.138 128.263C390.857 116.709 385.27 103.424 373.527 98.6483C367.039 96.0098 360.074 96.5327 354.32 99.5031C349.253 102.118 343.021 100.139 340.401 95.0835C337.78 90.0277 339.763 83.8093 344.829 81.1941C355.743 75.5611 369.019 74.5552 381.323 79.5594C403.546 88.5971 414.326 113.861 405.267 136.043C396.207 158.225 370.803 168.772 348.58 159.734C343.298 157.585 340.761 151.57 342.914 146.299C345.066 141.028 351.094 138.496 356.376 140.644Z" fill="#FFE49E"/>
<path fill-rule="evenodd" clip-rule="evenodd" d="M124.152 200.414C124.152 190.94 116.448 183.259 106.944 183.259C97.4398 183.259 89.7361 190.94 89.7361 200.414C89.7361 206.099 85.1134 210.708 79.4114 210.708C73.7087 210.708 69.0867 206.099 69.0867 200.414C69.0867 179.57 86.0357 162.672 106.944 162.672C127.852 162.672 144.801 179.57 144.801 200.414C144.801 206.099 140.179 210.708 134.477 210.708C128.774 210.708 124.152 206.099 124.152 200.414Z" fill="#F2F7EE"/>
<path fill-rule="evenodd" clip-rule="evenodd" d="M293.553 221.927C293.553 212.452 285.848 204.772 276.345 204.772C266.841 204.772 259.137 212.452 259.137 221.927C259.137 227.612 254.514 232.22 248.812 232.22C243.11 232.22 238.487 227.612 238.487 221.927C238.487 201.083 255.436 184.185 276.345 184.185C297.253 184.185 314.202 201.083 314.202 221.927C314.202 227.612 309.579 232.22 303.877 232.22C298.175 232.22 293.553 227.612 293.553 221.927Z" fill="#F2F7EE"/>
<path fill-rule="evenodd" clip-rule="evenodd" d="M138.626 335.34C169.033 335.34 193.683 310.683 193.683 280.268C193.683 274.565 198.305 269.941 204.006 269.941C209.707 269.941 214.329 274.565 214.329 280.268C214.329 322.089 180.436 355.992 138.626 355.992C132.925 355.992 128.303 351.369 128.303 345.666C128.303 339.964 132.925 335.34 138.626 335.34Z" fill="#F2F7EE"/>
<path fill-rule="evenodd" clip-rule="evenodd" d="M134.49 210.708C128.795 210.708 124.179 206.09 124.179 200.393C124.179 194.697 128.795 190.079 134.49 190.079C140.185 190.079 144.801 194.697 144.801 200.393C144.801 206.09 140.185 210.708 134.49 210.708Z" fill="#F2F7EE"/>
<path fill-rule="evenodd" clip-rule="evenodd" d="M206.669 145.58C200.975 145.58 196.358 140.962 196.358 135.266C196.358 129.569 200.975 124.951 206.669 124.951C212.364 124.951 216.981 129.569 216.981 135.266C216.981 140.962 212.364 145.58 206.669 145.58Z" fill="#F2F7EE"/>
<path d="M157.175 371.906C200.455 371.906 235.541 336.81 235.541 293.517C235.541 287.821 240.158 283.203 245.853 283.203C251.547 283.203 256.164 287.821 256.164 293.517C256.164 348.203 211.845 392.535 157.175 392.535C151.48 392.535 146.864 387.917 146.864 382.221C146.864 376.524 151.48 371.906 157.175 371.906Z" fill="#F2F7EE"/>
<path d="M461.191 25.6804C424.291 25.6804 394.377 55.6029 394.377 92.5141C394.377 98.2218 389.751 102.849 384.045 102.849C378.339 102.849 373.713 98.2218 373.713 92.5141C373.713 44.187 412.879 5.01025 461.191 5.01025C466.898 5.01025 471.524 9.63741 471.524 15.3453C471.524 21.0533 466.898 25.6804 461.191 25.6804Z" fill="#F2F7EE"/>
<path fill-rule="evenodd" clip-rule="evenodd" d="M259.11 222.201C259.11 227.897 254.493 232.515 248.799 232.515C243.104 232.515 238.487 227.897 238.487 222.201C238.487 216.505 243.104 211.886 248.799 211.886C254.493 211.886 259.11 216.505 259.11 222.201Z" fill="#F2F7EE"/>
<path fill-rule="evenodd" clip-rule="evenodd" d="M22.9803 62.1544C13.4768 62.1544 5.77246 54.4479 5.77246 44.9415C5.77246 35.4351 13.4768 27.7286 22.9803 27.7286C32.4839 27.7286 40.1882 35.4351 40.1882 44.9415C40.1882 54.4479 32.4839 62.1544 22.9803 62.1544ZM-14.877 44.9416C-14.877 65.8558 2.07212 82.81 22.9804 82.81C43.8887 82.81 60.8377 65.8558 60.8377 44.9416C60.8377 24.0275 43.8887 7.07324 22.9804 7.07324C2.07212 7.07324 -14.877 24.0275 -14.877 44.9416Z" fill="#F2F7EE"/>
<path d="M-84.4441 63.7501C-78.9977 46.9364 -63.1683 34.7744 -44.4897 34.7744H-4.57666C1.12402 34.7744 5.74567 39.3815 5.74567 45.0647C5.74567 50.7477 1.12402 55.3549 -4.57666 55.3549H-44.4897C-54.2468 55.3549 -62.4738 61.8848 -65.0134 70.7999C-55.5215 77.6565 -49.3463 88.8066 -49.3463 101.397C-49.3463 107.081 -53.9631 111.69 -59.6577 111.69C-65.3523 111.69 -69.969 107.081 -69.969 101.397C-69.969 91.922 -77.6633 84.2412 -87.1546 84.2412H-155.897C-165.388 84.2412 -173.082 91.922 -173.082 101.397C-173.082 107.081 -177.699 111.69 -183.394 111.69C-189.089 111.69 -193.705 107.081 -193.705 101.397C-193.705 80.552 -176.778 63.6546 -155.897 63.6546H-87.1546C-86.2432 63.6546 -85.3393 63.6868 -84.4441 63.7501H-84.4441Z" fill="#F2F7EE"/>
<path fill-rule="evenodd" clip-rule="evenodd" d="M-49.3195 101.523C-49.3195 92.0168 -41.6152 84.3103 -32.1117 84.3103C-22.6081 84.3103 -14.9038 92.0168 -14.9038 101.523C-14.9038 111.029 -22.6081 118.736 -32.1117 118.736C-37.8137 118.736 -42.4364 123.36 -42.4364 129.064C-42.4364 134.767 -37.8137 139.392 -32.1117 139.392C-11.2034 139.392 5.74569 122.438 5.74569 101.523C5.74569 80.6088 -11.2034 63.6548 -32.1117 63.6548C-53.0199 63.6548 -69.969 80.6088 -69.969 101.523C-69.969 107.227 -65.3463 111.851 -59.6443 111.851C-53.9423 111.851 -49.3195 107.227 -49.3195 101.523Z" fill="#F2F7EE"/>
<path fill-rule="evenodd" clip-rule="evenodd" d="M29.9037 203.34C29.9037 197.644 25.287 193.026 19.5923 193.026C13.8977 193.026 9.28101 197.644 9.28101 203.34C9.28101 209.036 13.8977 213.655 19.5923 213.655C25.287 213.655 29.9037 209.036 29.9037 203.34Z" fill="#F2F7EE"/>
<path fill-rule="evenodd" clip-rule="evenodd" d="M58.1862 201.867C58.1862 196.171 53.5694 191.552 47.8748 191.552C42.1802 191.552 37.5635 196.171 37.5635 201.867C37.5635 207.563 42.1802 212.181 47.8748 212.181C53.5694 212.181 58.1862 207.563 58.1862 201.867Z" fill="#F2F7EE"/>
<path fill-rule="evenodd" clip-rule="evenodd" d="M58.1862 230.747C58.1862 225.051 53.5694 220.433 47.8748 220.433C42.1802 220.433 37.5635 225.051 37.5635 230.747C37.5635 236.443 42.1802 241.061 47.8748 241.061C53.5694 241.061 58.1862 236.443 58.1862 230.747Z" fill="#F2F7EE"/>
<path fill-rule="evenodd" clip-rule="evenodd" d="M5.74572 45.0888C5.74572 39.3924 1.12899 34.7744 -4.56561 34.7744C-10.2602 34.7744 -14.877 39.3924 -14.877 45.0888C-14.877 50.7852 -10.2602 55.4031 -4.56561 55.4031C1.12899 55.4031 5.74572 50.7852 5.74572 45.0888Z" fill="#F2F7EE"/>
<path fill-rule="evenodd" clip-rule="evenodd" d="M33.4391 45.0888C33.4391 39.3923 28.8224 34.7744 23.1277 34.7744C17.4331 34.7744 12.8164 39.3923 12.8164 45.0888C12.8164 50.7852 17.4331 55.4031 23.1277 55.4031C28.8224 55.4031 33.4391 50.7852 33.4391 45.0888Z" fill="#F2F7EE"/>
<path fill-rule="evenodd" clip-rule="evenodd" d="M280.946 98.7234C269.292 98.7234 259.734 108.235 259.734 120.107C259.734 131.978 269.292 141.49 280.946 141.49C323.292 141.49 357.51 175.972 357.51 218.37C357.51 224.066 352.885 228.684 347.181 228.684C341.477 228.684 336.853 224.066 336.853 218.37C336.853 187.242 311.761 162.119 280.946 162.119C257.761 162.119 239.077 143.248 239.077 120.107C239.077 96.9658 257.761 78.0947 280.946 78.0947C286.65 78.0947 291.274 82.7128 291.274 88.4091C291.274 94.1053 286.65 98.7234 280.946 98.7234Z" fill="#F2F7EE"/>
<path fill-rule="evenodd" clip-rule="evenodd" d="M336.592 218.393C336.592 249.705 311.562 274.905 280.911 274.905C275.216 274.905 270.6 279.533 270.6 285.242C270.6 290.952 275.216 295.58 280.911 295.58C323.153 295.58 357.215 260.921 357.215 218.393C357.215 212.684 352.598 208.055 346.904 208.055C341.209 208.055 336.592 212.684 336.592 218.393Z" fill="#F2F7EE"/>
<path fill-rule="evenodd" clip-rule="evenodd" d="M346.904 228.684C341.209 228.684 336.592 224.066 336.592 218.37C336.592 212.673 341.209 208.055 346.904 208.055C352.598 208.055 357.215 212.673 357.215 218.37C357.215 224.066 352.598 228.684 346.904 228.684Z" fill="#F2F7EE"/>
<path fill-rule="evenodd" clip-rule="evenodd" d="M206.669 155.895C212.364 155.895 216.981 160.52 216.981 166.224V210.987C216.981 216.692 212.364 221.317 206.669 221.317C200.975 221.317 196.358 216.692 196.358 210.987V166.224C196.358 160.52 200.975 155.895 206.669 155.895Z" fill="#F2F7EE"/>
<path fill-rule="evenodd" clip-rule="evenodd" d="M37.5432 97.8493C37.5432 136.243 6.42818 167.367 -31.9545 167.367C-37.6546 167.367 -42.2759 171.99 -42.2759 177.692C-42.2759 183.393 -37.6546 188.016 -31.9545 188.016C17.8285 188.016 58.186 147.647 58.186 97.8493C58.186 92.1475 53.5648 87.5249 47.8646 87.5249C42.1644 87.5249 37.5432 92.1475 37.5432 97.8493Z" fill="#FFE49E"/>
<path d="M377.248 119.942C377.248 125.638 372.623 130.256 366.918 130.256H279.457C273.752 130.256 269.127 125.638 269.127 119.942C269.127 114.245 273.752 109.627 279.457 109.627H366.918C372.623 109.627 377.248 114.245 377.248 119.942Z" fill="#F2F7EE"/>
<path fill-rule="evenodd" clip-rule="evenodd" d="M58.1862 97.8392C58.1862 92.143 53.5694 87.5249 47.8748 87.5249C42.1802 87.5249 37.5635 92.143 37.5635 97.8392C37.5635 103.536 42.1802 108.154 47.8748 108.154C53.5694 108.154 58.1862 103.536 58.1862 97.8392Z" fill="#F2F7EE"/>
<path fill-rule="evenodd" clip-rule="evenodd" d="M356.552 97.7653C352.525 101.793 345.996 101.793 341.969 97.7653C337.942 93.7372 337.942 87.2062 341.969 83.1788C345.996 79.1507 352.525 79.1507 356.552 83.1788C360.579 87.2062 360.579 93.7372 356.552 97.7653Z" fill="#F2F7EE"/>
<path fill-rule="evenodd" clip-rule="evenodd" d="M286.435 66.8221C282.408 70.8503 275.878 70.8503 271.852 66.8221C267.825 62.7941 267.825 56.2636 271.852 52.2356C275.878 48.2076 282.408 48.2076 286.435 52.2356C290.461 56.2636 290.461 62.7941 286.435 66.8221Z" fill="#F2F7EE"/>
<path fill-rule="evenodd" clip-rule="evenodd" d="M248.815 71.2843C231.378 71.2843 217.243 85.4236 217.243 102.865C217.243 108.553 212.634 113.163 206.948 113.163C201.262 113.163 196.653 108.553 196.653 102.865C196.653 74.0483 220.006 50.688 248.815 50.688C254.501 50.688 259.11 55.2986 259.11 60.9861C259.11 66.6737 254.501 71.2843 248.815 71.2843Z" fill="#F2F7EE"/>
<path fill-rule="evenodd" clip-rule="evenodd" d="M199.673 95.5557C203.699 91.5276 210.228 91.5276 214.255 95.5557C218.282 99.5838 218.282 106.114 214.255 110.142C210.228 114.17 203.699 114.17 199.673 110.142C195.646 106.114 195.646 99.5838 199.673 95.5557Z" fill="#F2F7EE"/>
<path fill-rule="evenodd" clip-rule="evenodd" d="M377.248 119.89C377.277 125.586 372.684 130.228 366.989 130.256C361.294 130.285 356.655 125.691 356.626 119.993C356.597 114.297 361.19 109.656 366.885 109.627C372.58 109.598 377.22 114.193 377.248 119.89Z" fill="#F2F7EE"/>
<path fill-rule="evenodd" clip-rule="evenodd" d="M377.248 16.1568C377.277 21.8532 372.684 26.4943 366.989 26.5231C361.294 26.5519 356.655 21.9574 356.626 16.261C356.597 10.5647 361.19 5.92348 366.885 5.89467C372.58 5.86585 377.22 10.4604 377.248 16.1568Z" fill="#F2F7EE"/>
<path fill-rule="evenodd" clip-rule="evenodd" d="M377.248 43.5632C377.277 49.2597 372.684 53.9008 366.989 53.9296C361.294 53.9584 356.655 49.3639 356.626 43.6675C356.597 37.9712 361.19 33.33 366.885 33.3012C372.58 33.2723 377.22 37.8669 377.248 43.5632Z" fill="#F2F7EE"/>
</g>
</g>
<defs>
<clipPath id="clip0_115_833">
<rect width="800" height="600" fill="white" transform="translate(-194)"/>
</clipPath>
</defs>
</svg>
